# xmcd
#
# Track frame offsets:
# 150
# 17652
# 35017
# 51100
# 66022
# 85742
# 102736
# 117080
# 137107
# 155056
# 165773
# 179229
#
# Disc length: 2600 seconds
#
#
# Revision: 0
# Processed by: cddbd v1.5.2PL0 Copyright (c) Steve Scherf et al.
# Submitted via: FreeRIP 2.951 
#
DISCID=a10a260c
DTITLE=Garth Brooks - A Tribute To
DYEAR=1900
DGENRE=Country
TTITLE0=The Thunder Rolls
TTITLE1=Friends In Low Places
TTITLE2=If Tomorrow Never Comes
TTITLE3=Unanswered Prayers
TTITLE4=Shameless
TTITLE5=The Dance
TTITLE6=Wild Horses
TTITLE7=It Don't Matter To The Sun
TTITLE8=To Make You Feel My Love
TTITLE9=Against The Grain
TTITLE10=Lost In You
TTITLE11=Two Pina Coladas
EXTD=
EXTT0=
EXTT1=
EXTT2=
EXTT3=
EXTT4=
EXTT5=
EXTT6=
EXTT7=
EXTT8=
EXTT9=
EXTT10=
EXTT11=
PLAYORDER=
